<?xml version="1.0" standalone="no"?>
<!DOCTYPE svg PUBLIC "-//W3C//DTD SVG 20010904//EN"
 "http://www.w3.org/TR/2001/REC-SVG-20010904/DTD/svg10.dtd">
<svg version="1.0" xmlns="http://www.w3.org/2000/svg"
 width="1024.000000pt" height="1024.000000pt" viewBox="0 0 1024.000000 1024.000000"
 preserveAspectRatio="xMidYMid meet">
<metadata>
Created by potrace 1.14, written by Peter Selinger 2001-2017
</metadata>
<g transform="translate(0.000000,1024.000000) scale(0.100000,-0.100000)"
fill="#000000" stroke="none">
<path d="M4625 7603 c28 -8 100 -30 160 -50 61 -19 118 -36 127 -38 9 -2 25
-8 35 -13 10 -5 23 -8 28 -6 6 3 35 -4 65 -15 40 -13 55 -23 53 -36 -1 -20 57
-48 84 -39 14 5 15 4 4 -4 -11 -8 -9 -11 10 -17 12 -4 53 -27 90 -51 37 -23
70 -40 74 -36 4 4 5 0 3 -8 -1 -8 3 -14 10 -12 6 1 12 -2 12 -7 0 -5 24 -26
53 -48 81 -62 122 -101 173 -164 26 -33 52 -56 58 -52 6 3 8 3 4 -2 -4 -4 18
-42 48 -85 100 -143 144 -278 144 -441 0 -105 -7 -146 -50 -276 -17 -52 -22
-79 -13 -72 17 15 16 -1 -1 -24 -10 -13 -15 -14 -18 -6 -3 9 -6 7 -11 -4 -4
-10 -2 -16 4 -14 6 1 17 -15 25 -36 7 -21 20 -45 29 -53 8 -8 15 -25 15 -37 0
-26 60 -157 72 -157 4 0 8 -9 8 -20 0 -11 -4 -20 -10 -20 -5 0 -10 -9 -10 -20
0 -11 7 -20 15 -20 9 0 19 -8 22 -17 4 -10 9 -20 12 -23 19 -17 51 -94 51
-124 0 -20 5 -36 10 -36 6 0 10 -18 10 -40 0 -22 4 -40 8 -40 17 0 34 -68 32
-126 -1 -36 3 -65 9 -68 6 -4 11 -22 11 -40 0 -39 20 -86 37 -86 9 0 10 -7 3
-25 -14 -37 17 -70 57 -61 21 5 24 4 13 -4 -12 -8 -10 -10 11 -10 14 0 31 -6
38 -12 11 -11 12 -10 6 2 -5 9 1 7 15 -5 13 -11 20 -14 16 -7 -4 7 -2 12 6 12
8 0 24 7 36 16 20 13 21 18 10 32 -12 15 -11 16 5 3 16 -13 25 -7 97 69 44 45
77 87 74 92 -3 4 -1 7 5 6 12 -3 119 141 180 244 58 96 144 307 171 418 6 25
13 54 16 65 5 18 4 19 -6 2 -6 -10 -14 -30 -16 -45 -7 -37 -12 -39 -14 -6 -4
77 -6 92 -12 88 -4 -3 -5 -31 -2 -63 4 -33 2 -61 -3 -64 -5 -3 -8 6 -5 23 2
16 0 42 -6 58 -7 20 -6 39 3 66 13 38 9 146 -5 146 -4 0 -10 25 -12 55 -5 55
-8 60 -61 96 -6 4 -2 29 8 62 9 30 15 61 12 69 -3 7 -6 4 -6 -8 -1 -28 -88
-228 -143 -329 -90 -166 -241 -333 -279 -310 -14 9 -6 122 22 310 23 157 25
381 5 487 -41 212 -128 384 -261 513 -91 89 -291 215 -430 272 -17 7 -63 26
-103 42 -40 17 -124 46 -185 66 -98 30 -165 47 -392 94 -80 17 -294 41 -355
40 l-55 -1 50 -15z m155 -23 c30 -8 60 -18 65 -23 6 -6 3 -7 -10 -4 -92 25
-135 38 -135 43 0 4 6 4 13 1 6 -2 37 -10 67 -17z m184 -66 c3 -8 2 -12 -4 -9
-6 3 -10 10 -10 16 0 14 7 11 14 -7z m73 -8 c0 -8 -8 -11 -21 -8 -19 5 -19 6
0 13 10 4 19 8 20 8 0 1 1 -5 1 -13z m317 -174 c2 -4 -4 -8 -14 -8 -10 0 -16
4 -14 8 3 4 9 8 14 8 5 0 11 -4 14 -8z m479 -1177 c-3 -9 -8 -14 -10 -11 -3 3
-2 9 2 15 9 16 15 13 8 -4z m974 -247 c-3 -8 -6 -5 -6 6 -1 11 2 17 5 13 3 -3
4 -12 1 -19z m15 -110 c-8 -8 -9 -4 -5 13 4 13 8 18 11 10 2 -7 -1 -18 -6 -23z"/>
<path d="M6688 7185 c6 -11 19 -30 31 -41 11 -12 18 -24 15 -27 -3 -2 2 -7 10
-10 31 -12 23 9 -21 53 -25 25 -40 36 -35 25z"/>
<path d="M6764 7089 c-4 -8 -3 -9 4 -5 7 4 12 1 12 -8 0 -8 4 -16 9 -18 17 -6
71 -127 65 -145 -5 -15 -4 -16 6 -3 9 13 10 12 8 -5 -1 -11 2 -26 7 -34 5 -10
4 -16 -3 -19 -7 -2 -12 -10 -12 -18 0 -8 -4 -14 -10 -14 -5 0 -10 6 -10 14 0
8 -8 24 -19 37 -18 23 -18 22 -20 -81 -1 -58 -3 -125 -5 -150 -2 -25 -1 -36 1
-25 7 26 43 72 43 54 0 -12 2 -12 9 -1 7 11 10 10 15 -3 8 -22 8 -27 -2 -21
-4 2 -14 1 -22 -4 -13 -8 -11 -13 7 -31 l22 -22 -6 21 c-4 18 -2 21 11 16 9
-3 16 -15 16 -26 0 -10 4 -16 10 -13 6 4 4 19 -5 42 -19 44 -19 54 0 29 15
-20 15 -20 15 0 0 11 -5 25 -12 32 -9 9 -8 12 6 12 16 0 18 -6 13 -40 -3 -22
-1 -38 3 -35 5 3 12 -16 15 -42 9 -72 13 -82 14 -43 2 119 -44 312 -106 443
-50 104 -66 126 -79 106z"/>
<path d="M6783 6570 c2 -8 1 -24 -3 -35 -13 -36 -22 -80 -15 -73 16 15 33 95
23 109 -8 12 -9 12 -5 -1z"/>
<path d="M6910 6570 c0 -5 5 -10 10 -10 6 0 10 5 10 10 0 6 -4 10 -10 10 -5 0
-10 -4 -10 -10z"/>
<path d="M6781 6394 c0 -11 3 -14 6 -6 3 7 2 16 -1 19 -3 4 -6 -2 -5 -13z"/>
<path d="M6942 6295 c0 -16 2 -22 5 -12 2 9 2 23 0 30 -3 6 -5 -1 -5 -18z"/>
<path d="M6932 6215 c0 -16 2 -22 5 -12 2 9 2 23 0 30 -3 6 -5 -1 -5 -18z"/>
<path d="M6921 6164 c0 -11 3 -14 6 -6 3 7 2 16 -1 19 -3 4 -6 -2 -5 -13z"/>
<path d="M6886 6024 c-4 -14 -5 -28 -3 -31 3 -2 8 8 11 23 4 14 5 28 3 31 -3
2 -8 -8 -11 -23z"/>
<path d="M7144 6015 c4 -16 9 -106 13 -200 6 -187 -5 -290 -53 -485 -43 -175
-146 -370 -270 -512 -90 -102 -166 -152 -310 -200 -61 -20 -88 -23 -229 -23
-140 0 -172 4 -262 27 -56 14 -139 42 -186 61 -55 22 -84 30 -84 21 0 -7 7
-10 15 -6 9 3 13 1 9 -5 -4 -6 5 -14 21 -18 l27 -7 -30 -14 -30 -14 28 5 c25
5 27 3 28 -27 7 -325 11 -396 21 -415 8 -17 8 -26 -1 -37 -6 -8 -8 -16 -4 -18
4 -3 2 -3 -4 -2 -7 2 -23 0 -35 -5 -16 -6 -3 -9 49 -14 84 -7 128 -18 243 -63
145 -56 201 -67 325 -61 160 7 308 61 441 160 65 50 184 166 212 208 9 15 33
51 53 81 93 139 181 387 199 562 15 139 12 420 -5 552 -27 205 -94 393 -162
455 l-26 24 7 -30z m-1274 -1602 c0 -7 -7 -13 -15 -13 -10 0 -15 10 -15 33 1
30 1 31 15 13 8 -11 15 -26 15 -33z m27 -259 c-3 -3 -12 -4 -19 -1 -8 3 -5 6
6 6 11 1 17 -2 13 -5z"/>
<path d="M5007 5373 c-123 -47 -203 -149 -214 -273 -5 -48 -1 -67 20 -111 14
-30 36 -66 50 -81 26 -30 119 -77 158 -80 35 -2 153 12 165 20 5 4 35 42 66
85 118 162 136 294 55 392 -63 77 -176 95 -300 48z"/>
<path d="M5689 4744 c30 -13 56 -23 58 -20 4 4 -92 46 -104 45 -4 0 16 -11 46
-25z"/>
</g>
</svg>
